<?xml version="1.0" encoding="utf-8"?>
<!-- Generator: Adobe Illustrator 16.0.0, SVG Export Plug-In . SVG Version: 6.00 Build 0)  -->
<!DOCTYPE svg PUBLIC "-//W3C//DTD SVG 1.1//EN" "http://www.w3.org/Graphics/SVG/1.1/DTD/svg11.dtd">
<svg version="1.1" id="Layer_1" xmlns="http://www.w3.org/2000/svg" xmlns:xlink="http://www.w3.org/1999/xlink" x="0px" y="0px"
	 width="200px" height="200px" viewBox="0 0 200 200" enable-background="new 0 0 200 200" xml:space="preserve">
<g fill="#002E58">
<path fill-rule="evenodd" clip-rule="evenodd" d="M6.504,98.447c8.071-11.479,15.332-23.644,24.379-34.294
	c19.21-22.616,43.416-35.864,73.981-34.167c27.739,1.54,49.508,15.085,66.639,36.049c8.229,10.069,14.718,21.563,21.993,32.412
	c0,0.974,0,1.947,0,2.922c-6.045,9.339-11.453,19.17-18.237,27.936c-42.274,54.603-107.911,54.446-150.069-0.297
	c-6.772-8.793-12.484-18.404-18.686-27.639C6.504,100.394,6.504,99.42,6.504,98.447z M95.323,154.331
	c31.642-0.148,52.038-12.499,66.918-33.302c17.573-24.567,17.096-17.334,0.313-41.776c-0.96-1.399-2.123-2.664-3.239-3.948
	c-23.116-26.577-52.965-36.275-82.246-26.201C52.73,57.476,38.223,76.63,25.8,97.693c-0.857,1.457-0.01,4.805,1.186,6.44
	c6.731,9.201,13.092,18.84,20.934,27.033C62.057,145.938,79.424,154.579,95.323,154.331z"/>
<path fill-rule="evenodd" clip-rule="evenodd" d="M99.966,60.847c21.356,0.05,38.961,17.655,39.025,39.026
	c0.064,21.248-17.737,39.064-38.994,39.025c-21.366-0.04-38.981-17.628-39.057-38.994C60.864,78.735,78.789,60.797,99.966,60.847z
	 M100.209,76.559c-12.768-0.114-23.349,10.185-23.558,22.93c-0.215,13.059,10.378,23.772,23.486,23.755
	c12.69-0.019,23.233-10.609,23.196-23.303C123.297,87.12,112.965,76.672,100.209,76.559z"/>
	</g>
</svg>
