<?xml version="1.0" encoding="utf-8"?>
<!-- Generator: Adobe Illustrator 16.0.0, SVG Export Plug-In . SVG Version: 6.00 Build 0)  -->
<!DOCTYPE svg PUBLIC "-//W3C//DTD SVG 1.1//EN" "http://www.w3.org/Graphics/SVG/1.1/DTD/svg11.dtd">
<svg version="1.1" id="Layer_1" xmlns="http://www.w3.org/2000/svg" xmlns:xlink="http://www.w3.org/1999/xlink" x="0px" y="0px"
	 width="200px" height="200px" viewBox="0 0 200 200" enable-background="new 0 0 200 200" xml:space="preserve">
<g fill="#002E58">
	<path fill-rule="evenodd" clip-rule="evenodd" d="M127.26,167.253c0,6.529,0,12.589,0,18.497
		c-10.258-10.646-20.258-21.022-29.74-30.864c8.757-8.729,18.845-18.784,29.202-29.109c0.272,5.509,0.579,11.705,0.916,18.521
		c9.487,0,18.72,0.846,27.728-0.218c10.979-1.293,18.447-10.885,18.375-21.4c-0.077-10.528-7.695-19.5-18.584-21.394
		c-3.673-0.638-7.498-0.531-11.254-0.533c-41.763-0.034-83.525-0.022-125.289-0.022c-3.66,0-7.32,0-11.554,0
		c0-7.561,0-13.877,0-20.655c2.006-0.345,3.618-0.862,5.23-0.862c46.212-0.015,92.427-0.319,138.634,0.198
		c22.002,0.247,39.671,17.566,41.805,39.119c2.087,21.072-11.566,41.584-32.41,46.288
		C150.154,167.111,139.325,166.467,127.26,167.253z"/>
	<path fill-rule="evenodd" clip-rule="evenodd" d="M181.677,14.25c0,7.021,0,13.056,0,19.918c-58.225,0-116.03,0-174.519,0
		c0-6.46,0-12.761,0-19.918C65.121,14.25,122.924,14.25,181.677,14.25z"/>
	<path fill-rule="evenodd" clip-rule="evenodd" d="M7.346,145.516c21.261,0,42.245,0,64.051,0c0,6.582,0,13.13,0,20.321
		c-21.203,0-42.19,0-64.051,0C7.346,159.225,7.346,152.7,7.346,145.516z"/>
</g>
</svg>
