<?xml version="1.0" encoding="utf-8"?>
<!-- Generator: Adobe Illustrator 16.0.0, SVG Export Plug-In . SVG Version: 6.00 Build 0)  -->
<!DOCTYPE svg PUBLIC "-//W3C//DTD SVG 1.1//EN" "http://www.w3.org/Graphics/SVG/1.1/DTD/svg11.dtd">
<svg version="1.1" id="Layer_1" xmlns="http://www.w3.org/2000/svg" xmlns:xlink="http://www.w3.org/1999/xlink" x="0px" y="0px"
	 width="200px" height="200px" viewBox="0 0 200 200" enable-background="new 0 0 200 200" xml:space="preserve">
<g fill="#002E58">
<path fill-rule="evenodd" clip-rule="evenodd" d="M12.661,129.121c5.854-4.565,10.611-8.277,15.863-12.373
	c21.749,16.912,43.482,33.412,64.69,50.562c5.887,4.76,9.663,5.281,15.457,0.051c8.166-7.373,17.279-13.697,27.083-21.323
	c-5.289-4.114-10.066-7.831-15.814-12.303c-4.979,3.725-11.744,8.784-19.024,14.232c-29.14-22.675-58.111-45.222-88.201-68.637
	c10.779-8.461,20.792-16.323,30.969-24.313C29.847,41.412,16.355,28.147,2.057,14.092C7.231,9.287,11.34,5.474,14.94,2.131
	c61.023,61.036,121.973,121.995,183.003,183.036c-3.377,3.302-7.252,7.088-11.315,11.059
	c-11.601-11.854-23.551-24.064-35.998-36.785c-16.995,13.182-32.912,25.528-49.541,38.429
	C72.01,175.263,43.011,152.717,12.661,129.121z"/>
<path fill-rule="evenodd" clip-rule="evenodd" d="M189.559,79.299c-13.738,10.678-26.476,20.576-38.746,30.112
	c-25.82-25.854-51.166-51.229-77.325-77.417c8.569-6.692,17.627-13.764,27.564-21.523C130.226,33.158,159.384,55.834,189.559,79.299
	z"/>
<path fill-rule="evenodd" clip-rule="evenodd" d="M177.801,138.225c-4.712-4.729-8.975-9.011-13.841-13.896
	c3.878-3.084,7.337-5.835,11.045-8.782c4.277,4.807,8.242,9.265,12.894,14.492C185.37,132.089,181.753,135.022,177.801,138.225z"/>
	</g>
</svg>
